{
	"patcher" : 	{
		"fileversion" : 1,
		"appversion" : 		{
			"major" : 6,
			"minor" : 0,
			"revision" : 5
		}
,
		"rect" : [ 100.0, 100.0, 701.0, 464.0 ],
		"bglocked" : 0,
		"openinpresentation" : 0,
		"default_fontsize" : 10.0,
		"default_fontface" : 0,
		"default_fontname" : "Arial",
		"gridonopen" : 0,
		"gridsize" : [ 5.0, 5.0 ],
		"gridsnaponopen" : 0,
		"statusbarvisible" : 2,
		"toolbarvisible" : 1,
		"boxanimatetime" : 200,
		"imprint" : 0,
		"enablehscroll" : 1,
		"enablevscroll" : 1,
		"devicewidth" : 0.0,
		"description" : "",
		"digest" : "",
		"tags" : "",
		"showrootpatcherontab" : 0,
		"showontab" : 0,
		"boxes" : [ 			{
				"box" : 				{
					"fontname" : "Arial",
					"fontsize" : 10.0,
					"id" : "obj-2",
					"maxclass" : "newobj",
					"numinlets" : 0,
					"numoutlets" : 0,
					"patcher" : 					{
						"fileversion" : 1,
						"appversion" : 						{
							"major" : 6,
							"minor" : 0,
							"revision" : 5
						}
,
						"rect" : [ 100.0, 126.0, 701.0, 438.0 ],
						"bglocked" : 0,
						"openinpresentation" : 0,
						"default_fontsize" : 13.0,
						"default_fontface" : 0,
						"default_fontname" : "Arial",
						"gridonopen" : 0,
						"gridsize" : [ 5.0, 5.0 ],
						"gridsnaponopen" : 0,
						"statusbarvisible" : 2,
						"toolbarvisible" : 1,
						"boxanimatetime" : 200,
						"imprint" : 0,
						"enablehscroll" : 1,
						"enablevscroll" : 1,
						"devicewidth" : 0.0,
						"description" : "",
						"digest" : "",
						"tags" : "",
						"showontab" : 1,
						"boxes" : [ 							{
								"box" : 								{
									"id" : "obj-47",
									"maxclass" : "multislider",
									"numinlets" : 1,
									"numoutlets" : 2,
									"outlettype" : [ "", "" ],
									"parameter_enable" : 0,
									"patching_rect" : [ 590.0, 270.0, 57.740963, 30.0 ],
									"size" : 5
								}

							}
, 							{
								"box" : 								{
									"fontname" : "Arial",
									"fontsize" : 9.513832,
									"id" : "obj-48",
									"maxclass" : "newobj",
									"numinlets" : 1,
									"numoutlets" : 1,
									"outlettype" : [ "" ],
									"patching_rect" : [ 590.0, 310.0, 55.0, 17.0 ],
									"text" : "prepend D"
								}

							}
, 							{
								"box" : 								{
									"id" : "obj-45",
									"maxclass" : "multislider",
									"numinlets" : 1,
									"numoutlets" : 2,
									"outlettype" : [ "", "" ],
									"parameter_enable" : 0,
									"patching_rect" : [ 530.0, 270.0, 57.740963, 30.0 ],
									"size" : 5
								}

							}
, 							{
								"box" : 								{
									"fontname" : "Arial",
									"fontsize" : 9.513832,
									"id" : "obj-46",
									"maxclass" : "newobj",
									"numinlets" : 1,
									"numoutlets" : 1,
									"outlettype" : [ "" ],
									"patching_rect" : [ 530.0, 310.0, 55.0, 17.0 ],
									"text" : "prepend C"
								}

							}
, 							{
								"box" : 								{
									"id" : "obj-39",
									"maxclass" : "button",
									"numinlets" : 1,
									"numoutlets" : 1,
									"outlettype" : [ "bang" ],
									"patching_rect" : [ 410.0, 385.0, 35.0, 35.0 ]
								}

							}
, 							{
								"box" : 								{
									"id" : "obj-40",
									"maxclass" : "multislider",
									"numinlets" : 1,
									"numoutlets" : 2,
									"outlettype" : [ "", "" ],
									"parameter_enable" : 0,
									"patching_rect" : [ 470.0, 270.0, 57.740963, 30.0 ],
									"size" : 5
								}

							}
, 							{
								"box" : 								{
									"id" : "obj-41",
									"maxclass" : "multislider",
									"numinlets" : 1,
									"numoutlets" : 2,
									"outlettype" : [ "", "" ],
									"parameter_enable" : 0,
									"patching_rect" : [ 410.0, 270.0, 56.927711, 30.0 ],
									"size" : 3
								}

							}
, 							{
								"box" : 								{
									"fontname" : "Arial",
									"fontsize" : 9.513832,
									"id" : "obj-42",
									"maxclass" : "newobj",
									"numinlets" : 1,
									"numoutlets" : 1,
									"outlettype" : [ "" ],
									"patching_rect" : [ 470.0, 310.0, 57.740963, 17.0 ],
									"text" : "prepend B"
								}

							}
, 							{
								"box" : 								{
									"fontname" : "Arial",
									"fontsize" : 9.513832,
									"id" : "obj-43",
									"maxclass" : "newobj",
									"numinlets" : 1,
									"numoutlets" : 1,
									"outlettype" : [ "" ],
									"patching_rect" : [ 410.0, 310.0, 56.927711, 17.0 ],
									"text" : "prepend A"
								}

							}
, 							{
								"box" : 								{
									"bgcolor" : [ 0.901961, 0.901961, 0.901961, 1.0 ],
									"color" : [ 0.65098, 0.65098, 0.65098, 1.0 ],
									"fontface" : 3,
									"fontname" : "Arial",
									"fontsize" : 10.0,
									"id" : "obj-44",
									"maxclass" : "newobj",
									"numinlets" : 1,
									"numoutlets" : 2,
									"outlettype" : [ "", "" ],
									"patching_rect" : [ 410.0, 360.0, 168.0, 18.0 ],
									"text" : "o.routejoin A B C D @triggers 0 2"
								}

							}
, 							{
								"box" : 								{
									"id" : "obj-38",
									"maxclass" : "button",
									"numinlets" : 1,
									"numoutlets" : 1,
									"outlettype" : [ "bang" ],
									"patching_rect" : [ 345.0, 265.0, 35.0, 35.0 ]
								}

							}
, 							{
								"box" : 								{
									"id" : "obj-32",
									"maxclass" : "multislider",
									"numinlets" : 1,
									"numoutlets" : 2,
									"outlettype" : [ "", "" ],
									"parameter_enable" : 0,
									"patching_rect" : [ 440.0, 130.0, 85.0, 45.0 ],
									"size" : 5
								}

							}
, 							{
								"box" : 								{
									"id" : "obj-33",
									"maxclass" : "multislider",
									"numinlets" : 1,
									"numoutlets" : 2,
									"outlettype" : [ "", "" ],
									"parameter_enable" : 0,
									"patching_rect" : [ 345.0, 130.0, 85.0, 45.0 ],
									"size" : 3
								}

							}
, 							{
								"box" : 								{
									"fontname" : "Arial",
									"fontsize" : 13.0,
									"id" : "obj-34",
									"maxclass" : "newobj",
									"numinlets" : 1,
									"numoutlets" : 1,
									"outlettype" : [ "" ],
									"patching_rect" : [ 440.0, 190.0, 71.0, 21.0 ],
									"text" : "prepend B"
								}

							}
, 							{
								"box" : 								{
									"fontname" : "Arial",
									"fontsize" : 13.0,
									"id" : "obj-35",
									"maxclass" : "newobj",
									"numinlets" : 1,
									"numoutlets" : 1,
									"outlettype" : [ "" ],
									"patching_rect" : [ 345.0, 190.0, 70.0, 21.0 ],
									"text" : "prepend A"
								}

							}
, 							{
								"box" : 								{
									"bgcolor" : [ 0.901961, 0.901961, 0.901961, 1.0 ],
									"color" : [ 0.65098, 0.65098, 0.65098, 1.0 ],
									"fontface" : 3,
									"fontname" : "Arial",
									"fontsize" : 10.0,
									"id" : "obj-36",
									"maxclass" : "newobj",
									"numinlets" : 1,
									"numoutlets" : 2,
									"outlettype" : [ "", "" ],
									"patching_rect" : [ 345.0, 240.0, 140.0, 18.0 ],
									"text" : "o.routejoin A B @triggers 1"
								}

							}
, 							{
								"box" : 								{
									"fontname" : "Arial",
									"fontsize" : 13.0,
									"id" : "obj-30",
									"maxclass" : "number",
									"numinlets" : 1,
									"numoutlets" : 2,
									"outlettype" : [ "int", "bang" ],
									"parameter_enable" : 0,
									"patching_rect" : [ 25.0, 309.0, 50.0, 21.0 ]
								}

							}
, 							{
								"box" : 								{
									"fontname" : "Arial",
									"fontsize" : 13.0,
									"id" : "obj-28",
									"maxclass" : "newobj",
									"numinlets" : 2,
									"numoutlets" : 2,
									"outlettype" : [ "", "" ],
									"patching_rect" : [ 25.0, 284.0, 41.0, 21.0 ],
									"text" : "zl len"
								}

							}
, 							{
								"box" : 								{
									"id" : "obj-27",
									"maxclass" : "multislider",
									"numinlets" : 1,
									"numoutlets" : 2,
									"outlettype" : [ "", "" ],
									"parameter_enable" : 0,
									"patching_rect" : [ 80.0, 285.0, 85.0, 45.0 ],
									"size" : 8
								}

							}
, 							{
								"box" : 								{
									"id" : "obj-22",
									"maxclass" : "multislider",
									"numinlets" : 1,
									"numoutlets" : 2,
									"outlettype" : [ "", "" ],
									"parameter_enable" : 0,
									"patching_rect" : [ 175.0, 130.0, 85.0, 45.0 ],
									"size" : 5
								}

							}
, 							{
								"box" : 								{
									"id" : "obj-19",
									"maxclass" : "multislider",
									"numinlets" : 1,
									"numoutlets" : 2,
									"outlettype" : [ "", "" ],
									"parameter_enable" : 0,
									"patching_rect" : [ 80.0, 130.0, 85.0, 45.0 ],
									"size" : 3
								}

							}
, 							{
								"box" : 								{
									"fontname" : "Arial",
									"fontsize" : 13.0,
									"id" : "obj-18",
									"maxclass" : "newobj",
									"numinlets" : 1,
									"numoutlets" : 1,
									"outlettype" : [ "" ],
									"patching_rect" : [ 175.0, 190.0, 71.0, 21.0 ],
									"text" : "prepend B"
								}

							}
, 							{
								"box" : 								{
									"fontname" : "Arial",
									"fontsize" : 13.0,
									"id" : "obj-17",
									"maxclass" : "newobj",
									"numinlets" : 1,
									"numoutlets" : 1,
									"outlettype" : [ "" ],
									"patching_rect" : [ 80.0, 190.0, 70.0, 21.0 ],
									"text" : "prepend A"
								}

							}
, 							{
								"box" : 								{
									"bgcolor" : [ 0.901961, 0.901961, 0.901961, 1.0 ],
									"color" : [ 0.65098, 0.65098, 0.65098, 1.0 ],
									"fontface" : 3,
									"fontname" : "Arial",
									"fontsize" : 10.0,
									"id" : "obj-10",
									"maxclass" : "newobj",
									"numinlets" : 1,
									"numoutlets" : 2,
									"outlettype" : [ "", "" ],
									"patching_rect" : [ 80.0, 240.0, 81.0, 18.0 ],
									"text" : "o.routejoin A B"
								}

							}
, 							{
								"box" : 								{
									"fontname" : "Arial",
									"fontsize" : 13.0,
									"id" : "obj-3",
									"maxclass" : "comment",
									"numinlets" : 1,
									"numoutlets" : 0,
									"patching_rect" : [ 10.0, 62.5, 130.0, 21.0 ],
									"prototypename" : "oi.help_digest",
									"text" : "Fast route&join"
								}

							}
, 							{
								"box" : 								{
									"fontname" : "Arial",
									"fontsize" : 13.0,
									"frgb" : [ 0.501961, 0.501961, 0.501961, 1.0 ],
									"id" : "obj-6",
									"linecount" : 2,
									"maxclass" : "comment",
									"numinlets" : 1,
									"numoutlets" : 0,
									"patching_rect" : [ 10.0, 83.5, 512.0, 36.0 ],
									"prototypename" : "oi.help_digest",
									"text" : "Similar to oi.routepack and oi.routepak, but uses max's 'join', meaning that you can input identified lists.",
									"textcolor" : [ 0.501961, 0.501961, 0.501961, 1.0 ]
								}

							}
, 							{
								"box" : 								{
									"angle" : 90.0,
									"bgcolor" : [ 0.65098, 0.65098, 0.65098, 1.0 ],
									"grad1" : [ 0.65098, 0.65098, 0.65098, 0.0 ],
									"grad2" : [ 0.65098, 0.65098, 0.65098, 1.0 ],
									"id" : "obj-5",
									"ignoreclick" : 1,
									"maxclass" : "panel",
									"mode" : 1,
									"numinlets" : 1,
									"numoutlets" : 0,
									"patching_rect" : [ 0.0, 1.5, 700.0, 80.0 ],
									"rounded" : 0
								}

							}
, 							{
								"box" : 								{
									"border" : 0,
									"filename" : "helpdetails.js",
									"id" : "obj-2",
									"jsarguments" : [ "o.routejoin" ],
									"maxclass" : "jsui",
									"numinlets" : 1,
									"numoutlets" : 1,
									"outlettype" : [ "" ],
									"parameter_enable" : 0,
									"patching_rect" : [ 10.0, 10.0, 245.0, 55.0 ]
								}

							}
 ],
						"lines" : [ 							{
								"patchline" : 								{
									"destination" : [ "obj-27", 0 ],
									"disabled" : 0,
									"hidden" : 0,
									"source" : [ "obj-10", 0 ]
								}

							}
, 							{
								"patchline" : 								{
									"destination" : [ "obj-28", 0 ],
									"disabled" : 0,
									"hidden" : 0,
									"source" : [ "obj-10", 0 ]
								}

							}
, 							{
								"patchline" : 								{
									"destination" : [ "obj-10", 0 ],
									"disabled" : 0,
									"hidden" : 0,
									"source" : [ "obj-17", 0 ]
								}

							}
, 							{
								"patchline" : 								{
									"destination" : [ "obj-10", 0 ],
									"disabled" : 0,
									"hidden" : 0,
									"source" : [ "obj-18", 0 ]
								}

							}
, 							{
								"patchline" : 								{
									"destination" : [ "obj-17", 0 ],
									"disabled" : 0,
									"hidden" : 0,
									"source" : [ "obj-19", 0 ]
								}

							}
, 							{
								"patchline" : 								{
									"destination" : [ "obj-18", 0 ],
									"disabled" : 0,
									"hidden" : 0,
									"source" : [ "obj-22", 0 ]
								}

							}
, 							{
								"patchline" : 								{
									"destination" : [ "obj-30", 0 ],
									"disabled" : 0,
									"hidden" : 0,
									"source" : [ "obj-28", 0 ]
								}

							}
, 							{
								"patchline" : 								{
									"destination" : [ "obj-34", 0 ],
									"disabled" : 0,
									"hidden" : 0,
									"source" : [ "obj-32", 0 ]
								}

							}
, 							{
								"patchline" : 								{
									"destination" : [ "obj-35", 0 ],
									"disabled" : 0,
									"hidden" : 0,
									"source" : [ "obj-33", 0 ]
								}

							}
, 							{
								"patchline" : 								{
									"destination" : [ "obj-36", 0 ],
									"disabled" : 0,
									"hidden" : 0,
									"source" : [ "obj-34", 0 ]
								}

							}
, 							{
								"patchline" : 								{
									"destination" : [ "obj-36", 0 ],
									"disabled" : 0,
									"hidden" : 0,
									"source" : [ "obj-35", 0 ]
								}

							}
, 							{
								"patchline" : 								{
									"destination" : [ "obj-38", 0 ],
									"disabled" : 0,
									"hidden" : 0,
									"source" : [ "obj-36", 0 ]
								}

							}
, 							{
								"patchline" : 								{
									"destination" : [ "obj-42", 0 ],
									"disabled" : 0,
									"hidden" : 0,
									"source" : [ "obj-40", 0 ]
								}

							}
, 							{
								"patchline" : 								{
									"destination" : [ "obj-43", 0 ],
									"disabled" : 0,
									"hidden" : 0,
									"source" : [ "obj-41", 0 ]
								}

							}
, 							{
								"patchline" : 								{
									"destination" : [ "obj-44", 0 ],
									"disabled" : 0,
									"hidden" : 0,
									"source" : [ "obj-42", 0 ]
								}

							}
, 							{
								"patchline" : 								{
									"destination" : [ "obj-44", 0 ],
									"disabled" : 0,
									"hidden" : 0,
									"source" : [ "obj-43", 0 ]
								}

							}
, 							{
								"patchline" : 								{
									"destination" : [ "obj-39", 0 ],
									"disabled" : 0,
									"hidden" : 0,
									"source" : [ "obj-44", 0 ]
								}

							}
, 							{
								"patchline" : 								{
									"destination" : [ "obj-46", 0 ],
									"disabled" : 0,
									"hidden" : 0,
									"source" : [ "obj-45", 0 ]
								}

							}
, 							{
								"patchline" : 								{
									"destination" : [ "obj-44", 0 ],
									"disabled" : 0,
									"hidden" : 0,
									"source" : [ "obj-46", 0 ]
								}

							}
, 							{
								"patchline" : 								{
									"destination" : [ "obj-48", 0 ],
									"disabled" : 0,
									"hidden" : 0,
									"source" : [ "obj-47", 0 ]
								}

							}
, 							{
								"patchline" : 								{
									"destination" : [ "obj-44", 0 ],
									"disabled" : 0,
									"hidden" : 0,
									"source" : [ "obj-48", 0 ]
								}

							}
 ],
						"dependency_cache" : [ 							{
								"name" : "helpdetails.js",
								"bootpath" : "/Applications/Max6/Cycling '74/help-resources",
								"type" : "TEXT",
								"implicit" : 1
							}
, 							{
								"name" : "o.routejoin.maxpat",
								"bootpath" : "/Applications/Max6/patches/OI lib /Utilities (objects)/Lists",
								"type" : "JSON",
								"implicit" : 1
							}
 ]
					}
,
					"patching_rect" : [ 10.0, 85.0, 50.0, 18.0 ],
					"saved_object_attributes" : 					{
						"default_fontsize" : 13.0,
						"description" : "",
						"tags" : "",
						"globalpatchername" : "",
						"fontface" : 0,
						"fontsize" : 13.0,
						"default_fontface" : 0,
						"digest" : "",
						"default_fontname" : "Arial",
						"fontname" : "Arial"
					}
,
					"text" : "p basic",
					"varname" : "basic_tab"
				}

			}
, 			{
				"box" : 				{
					"border" : 0,
					"filename" : "helpname.js",
					"id" : "obj-4",
					"jsarguments" : [ "oi.routejoin" ],
					"maxclass" : "jsui",
					"numinlets" : 1,
					"numoutlets" : 1,
					"outlettype" : [ "" ],
					"parameter_enable" : 0,
					"patching_rect" : [ 10.0, 10.0, 305.0, 55.0 ]
				}

			}
, 			{
				"box" : 				{
					"fontname" : "Arial",
					"fontsize" : 10.0,
					"id" : "obj-5",
					"maxclass" : "newobj",
					"numinlets" : 0,
					"numoutlets" : 0,
					"patcher" : 					{
						"fileversion" : 1,
						"appversion" : 						{
							"major" : 6,
							"minor" : 0,
							"revision" : 5
						}
,
						"rect" : [ 0.0, 26.0, 701.0, 438.0 ],
						"bglocked" : 0,
						"openinpresentation" : 0,
						"default_fontsize" : 10.0,
						"default_fontface" : 0,
						"default_fontname" : "Arial",
						"gridonopen" : 0,
						"gridsize" : [ 5.0, 5.0 ],
						"gridsnaponopen" : 0,
						"statusbarvisible" : 2,
						"toolbarvisible" : 1,
						"boxanimatetime" : 200,
						"imprint" : 0,
						"enablehscroll" : 1,
						"enablevscroll" : 1,
						"devicewidth" : 0.0,
						"description" : "",
						"digest" : "",
						"tags" : "",
						"showontab" : 1,
						"boxes" : [  ],
						"lines" : [  ],
						"dependency_cache" : [  ]
					}
,
					"patching_rect" : [ 20.0, 110.0, 50.0, 18.0 ],
					"saved_object_attributes" : 					{
						"default_fontsize" : 10.0,
						"description" : "",
						"tags" : "",
						"globalpatchername" : "",
						"fontface" : 0,
						"fontsize" : 10.0,
						"default_fontface" : 0,
						"digest" : "",
						"default_fontname" : "Arial",
						"fontname" : "Arial"
					}
,
					"text" : "p ?",
					"varname" : "q_tab"
				}

			}
 ],
		"lines" : [  ],
		"dependency_cache" : [ 			{
				"name" : "helpname.js",
				"bootpath" : "/Applications/Max6/Cycling '74/help-resources",
				"patcherrelativepath" : "../../../../../Cycling '74/help-resources",
				"type" : "TEXT",
				"implicit" : 1
			}
, 			{
				"name" : "helpdetails.js",
				"bootpath" : "/Applications/Max6/Cycling '74/help-resources",
				"patcherrelativepath" : "../../../../../Cycling '74/help-resources",
				"type" : "TEXT",
				"implicit" : 1
			}
, 			{
				"name" : "o.routejoin.maxpat",
				"bootpath" : "/Applications/Max6/patches/OI lib /Utilities (objects)/Lists",
				"patcherrelativepath" : "",
				"type" : "JSON",
				"implicit" : 1
			}
 ]
	}

}
