{
	"patcher" : 	{
		"fileversion" : 1,
		"appversion" : 		{
			"major" : 6,
			"minor" : 1,
			"revision" : 2,
			"architecture" : "x86"
		}
,
		"rect" : [ 56.0, 253.0, 265.0, 408.0 ],
		"bglocked" : 0,
		"openinpresentation" : 0,
		"default_fontsize" : 10.0,
		"default_fontface" : 0,
		"default_fontname" : "Arial",
		"gridonopen" : 0,
		"gridsize" : [ 5.0, 5.0 ],
		"gridsnaponopen" : 0,
		"statusbarvisible" : 2,
		"toolbarvisible" : 1,
		"boxanimatetime" : 200,
		"imprint" : 0,
		"enablehscroll" : 1,
		"enablevscroll" : 1,
		"devicewidth" : 0.0,
		"description" : "",
		"digest" : "",
		"tags" : "",
		"boxes" : [ 			{
				"box" : 				{
					"fontname" : "Arial",
					"fontsize" : 10.0,
					"hidden" : 1,
					"id" : "obj-11",
					"linecount" : 2,
					"maxclass" : "message",
					"numinlets" : 2,
					"numoutlets" : 1,
					"outlettype" : [ "" ],
					"patching_rect" : [ 55.0, 160.0, 207.0, 27.0 ],
					"text" : "-1.587302 -74.603172 -36.507938 -80.952377"
				}

			}
, 			{
				"box" : 				{
					"fontface" : 3,
					"fontname" : "Arial",
					"fontsize" : 16.0,
					"frgb" : 0.0,
					"id" : "obj-9",
					"maxclass" : "comment",
					"numinlets" : 1,
					"numoutlets" : 0,
					"patching_rect" : [ 4.0, 5.0, 243.0, 24.0 ],
					"text" : "Normalized Multislider Display"
				}

			}
, 			{
				"box" : 				{
					"fontname" : "Arial",
					"fontsize" : 10.0,
					"hidden" : 1,
					"id" : "obj-7",
					"maxclass" : "message",
					"numinlets" : 2,
					"numoutlets" : 1,
					"outlettype" : [ "" ],
					"patching_rect" : [ 190.0, 277.0, 100.0, 16.0 ],
					"text" : "-80.952377 0."
				}

			}
, 			{
				"box" : 				{
					"fontname" : "Arial",
					"fontsize" : 13.0,
					"id" : "obj-17",
					"maxclass" : "message",
					"numinlets" : 2,
					"numoutlets" : 1,
					"outlettype" : [ "" ],
					"patching_rect" : [ 55.0, 275.0, 110.0, 19.0 ],
					"text" : "setminmax $1 $2"
				}

			}
, 			{
				"box" : 				{
					"candicane2" : [ 0.258824, 0.517647, 0.709804, 1.0 ],
					"candicane3" : [ 0.290196, 0.411765, 0.713726, 1.0 ],
					"candicane4" : [ 0.439216, 0.619608, 0.070588, 1.0 ],
					"candicane5" : [ 0.584314, 0.827451, 0.431373, 1.0 ],
					"candicane6" : [ 0.733333, 0.035294, 0.788235, 1.0 ],
					"candicane7" : [ 0.878431, 0.243137, 0.145098, 1.0 ],
					"candicane8" : [ 0.027451, 0.447059, 0.501961, 1.0 ],
					"candycane" : 2,
					"id" : "obj-15",
					"maxclass" : "multislider",
					"numinlets" : 1,
					"numoutlets" : 2,
					"outlettype" : [ "", "" ],
					"parameter_enable" : 1,
					"patching_rect" : [ 35.0, 310.0, 190.0, 65.0 ],
					"peakcolor" : [ 0.0, 0.0, 0.0, 1.0 ],
					"saved_attribute_attributes" : 					{
						"valueof" : 						{
							"parameter_type" : 3,
							"parameter_invisible" : 1,
							"parameter_shortname" : "multislider",
							"parameter_longname" : "multislider[2]"
						}

					}
,
					"setminmax" : [ -80.952377, 0.0 ],
					"setstyle" : 1,
					"size" : 4,
					"slidercolor" : [ 0.466667, 0.752941, 0.894118, 1.0 ],
					"spacing" : 2,
					"thickness" : 8,
					"varname" : "multislider[2]"
				}

			}
, 			{
				"box" : 				{
					"fontname" : "Arial",
					"fontsize" : 13.0,
					"id" : "obj-4",
					"maxclass" : "newobj",
					"numinlets" : 1,
					"numoutlets" : 3,
					"outlettype" : [ "", "", "clear" ],
					"patching_rect" : [ 35.0, 205.0, 59.0, 21.0 ],
					"text" : "t l l clear"
				}

			}
, 			{
				"box" : 				{
					"bgcolor" : [ 0.901961, 0.901961, 0.901961, 1.0 ],
					"color" : [ 0.65098, 0.65098, 0.65098, 1.0 ],
					"fontface" : 3,
					"fontname" : "Arial",
					"fontsize" : 10.0,
					"id" : "obj-13",
					"maxclass" : "newobj",
					"numinlets" : 3,
					"numoutlets" : 2,
					"outlettype" : [ "", "" ],
					"patching_rect" : [ 55.0, 245.0, 151.0, 18.0 ],
					"text" : "ta.autorange -5 5 @outmode 1"
				}

			}
, 			{
				"box" : 				{
					"candicane2" : [ 0.258824, 0.517647, 0.709804, 1.0 ],
					"candicane3" : [ 0.290196, 0.411765, 0.713726, 1.0 ],
					"candicane4" : [ 0.439216, 0.619608, 0.070588, 1.0 ],
					"candicane5" : [ 0.584314, 0.827451, 0.431373, 1.0 ],
					"candicane6" : [ 0.733333, 0.035294, 0.788235, 1.0 ],
					"candicane7" : [ 0.878431, 0.243137, 0.145098, 1.0 ],
					"candicane8" : [ 0.027451, 0.447059, 0.501961, 1.0 ],
					"candycane" : 2,
					"id" : "obj-5",
					"maxclass" : "multislider",
					"numinlets" : 1,
					"numoutlets" : 2,
					"outlettype" : [ "", "" ],
					"parameter_enable" : 1,
					"patching_rect" : [ 35.0, 70.0, 190.0, 65.0 ],
					"peakcolor" : [ 0.0, 0.0, 0.0, 1.0 ],
					"saved_attribute_attributes" : 					{
						"valueof" : 						{
							"parameter_type" : 3,
							"parameter_invisible" : 1,
							"parameter_shortname" : "multislider",
							"parameter_longname" : "multislider[1]"
						}

					}
,
					"setminmax" : [ -100.0, 100.0 ],
					"setstyle" : 1,
					"size" : 4,
					"slidercolor" : [ 0.466667, 0.752941, 0.894118, 1.0 ],
					"spacing" : 2,
					"thickness" : 8,
					"varname" : "multislider[1]"
				}

			}
 ],
		"lines" : [ 			{
				"patchline" : 				{
					"destination" : [ "obj-17", 0 ],
					"disabled" : 0,
					"hidden" : 0,
					"source" : [ "obj-13", 0 ]
				}

			}
, 			{
				"patchline" : 				{
					"destination" : [ "obj-7", 1 ],
					"disabled" : 0,
					"hidden" : 1,
					"midpoints" : [ 64.5, 268.5, 280.5, 268.5 ],
					"source" : [ "obj-13", 0 ]
				}

			}
, 			{
				"patchline" : 				{
					"destination" : [ "obj-15", 0 ],
					"disabled" : 0,
					"hidden" : 0,
					"source" : [ "obj-17", 0 ]
				}

			}
, 			{
				"patchline" : 				{
					"destination" : [ "obj-13", 0 ],
					"disabled" : 0,
					"hidden" : 0,
					"source" : [ "obj-4", 2 ]
				}

			}
, 			{
				"patchline" : 				{
					"destination" : [ "obj-13", 0 ],
					"disabled" : 0,
					"hidden" : 0,
					"source" : [ "obj-4", 1 ]
				}

			}
, 			{
				"patchline" : 				{
					"destination" : [ "obj-15", 0 ],
					"disabled" : 0,
					"hidden" : 0,
					"source" : [ "obj-4", 0 ]
				}

			}
, 			{
				"patchline" : 				{
					"destination" : [ "obj-11", 1 ],
					"disabled" : 0,
					"hidden" : 1,
					"midpoints" : [ 44.5, 147.0, 252.5, 147.0 ],
					"source" : [ "obj-5", 0 ]
				}

			}
, 			{
				"patchline" : 				{
					"destination" : [ "obj-4", 0 ],
					"disabled" : 0,
					"hidden" : 0,
					"source" : [ "obj-5", 0 ]
				}

			}
 ],
		"parameters" : 		{
			"obj-15" : [ "multislider[2]", "multislider", 0 ],
			"obj-5" : [ "multislider[1]", "multislider", 0 ]
		}
,
		"dependency_cache" : [ 			{
				"name" : "ta.autorange.maxpat",
				"bootpath" : "/Applications/Max 6.1/packages/TA-Library/patchers/o-max/Lists",
				"patcherrelativepath" : "../patchers/o-max/Lists",
				"type" : "JSON",
				"implicit" : 1
			}
 ]
	}

}
